{
  "accessors": [
    {
      "bufferView": 2,
      "componentType": 5126,
      "count": 651,
      "max": [
        616.4871215820313,
        609.49462890625,
        21.132400512695313
      ],
      "min": [
        -853.8154296875,
        -795.5540161132813,
        -40.14950180053711
      ],
      "type": "VEC3"
    },
    {
      "bufferView": 2,
      "byteOffset": 7812,
      "componentType": 5126,
      "count": 651,
      "max": [
        0.25058606266975403,
        0.3581894338130951,
        0.999997615814209
      ],
      "min": [
        -0.4088968336582184,
        -0.43289804458618164,
        0.8485934138298035
      ],
      "type": "VEC3"
    },
    {
      "bufferView": 1,
      "componentType": 5126,
      "count": 651,
      "max": [
        0.9997000098228455,
        0.9340999722480774
      ],
      "min": [
        0.0003000000142492354,
        0.0003000000142492354
      ],
      "type": "VEC2"
    },
    {
      "bufferView": 0,
      "componentType": 5125,
      "count": 3750,
      "type": "SCALAR"
    },
    {
      "bufferView": 2,
      "byteOffset": 15624,
      "componentType": 5126,
      "count": 2170,
      "max": [
        182.3083953857422,
        -165.19549560546875,
        236.58340454101563
      ],
      "min": [
        -725.9293212890625,
        -712.6417846679688,
        -29.193899154663086
      ],
      "type": "VEC3"
    },
    {
      "bufferView": 2,
      "byteOffset": 41664,
      "componentType": 5126,
      "count": 2170,
      "max": [
        0.9995293021202087,
        0.9995525479316711,
        0.9998027682304382
      ],
      "min": [
        -0.9983691573143005,
        -0.996496319770813,
        -0.999839723110199
      ],
      "type": "VEC3"
    },
    {
      "bufferView": 1,
      "byteOffset": 5208,
      "componentType": 5126,
      "count": 2170,
      "max": [
        0.9997000098228455,
        0.9588000178337097
      ],
      "min": [
        0.0003000000142492354,
        0.00019999999494757503
      ],
      "type": "VEC2"
    },
    {
      "bufferView": 0,
      "byteOffset": 15000,
      "componentType": 5125,
      "count": 10824,
      "type": "SCALAR"
    },
    {
      "bufferView": 2,
      "byteOffset": 67704,
      "componentType": 5126,
      "count": 1094,
      "max": [
        -50.68899917602539,
        -138.3289031982422,
        32.2859992980957
      ],
      "min": [
        -755.9074096679688,
        -695.4066772460938,
        -30.134599685668945
      ],
      "type": "VEC3"
    },
    {
      "bufferView": 2,
      "byteOffset": 80832,
      "componentType": 5126,
      "count": 1094,
      "max": [
        0.9986453652381897,
        0.9965807199478149,
        0.997536838054657
      ],
      "min": [
        -0.9991514086723328,
        -0.9997305274009705,
        -0.9967394471168518
      ],
      "type": "VEC3"
    },
    {
      "bufferView": 1,
      "byteOffset": 22568,
      "componentType": 5126,
      "count": 1094,
      "max": [
        0.9994000196456909,
        0.9819999933242798
      ],
      "min": [
        0.0005000000237487257,
        0.0006000000284984708
      ],
      "type": "VEC2"
    },
    {
      "bufferView": 0,
      "byteOffset": 58296,
      "componentType": 5125,
      "count": 5400,
      "type": "SCALAR"
    },
    {
      "bufferView": 2,
      "byteOffset": 93960,
      "componentType": 5126,
      "count": 1702,
      "max": [
        260.6484069824219,
        226.21629333496094,
        258.5138854980469
      ],
      "min": [
        -362.05731201171875,
        -41.48619842529297,
        -21.515199661254883
      ],
      "type": "VEC3"
    },
    {
      "bufferView": 2,
      "byteOffset": 114384,
      "componentType": 5126,
      "count": 1702,
      "max": [
        0.9931982159614563,
        0.9876992702484131,
        0.9998494386672974
      ],
      "min": [
        -0.9963960647583008,
        -0.9947329759597778,
        -0.9999997615814209
      ],
      "type": "VEC3"
    },
    {
      "bufferView": 1,
      "byteOffset": 31320,
      "componentType": 5126,
      "count": 1702,
      "max": [
        0.9997000098228455,
        0.9648000001907349
      ],
      "min": [
        0.0003000000142492354,
        0.00039999998989515007
      ],
      "type": "VEC2"
    },
    {
      "bufferView": 0,
      "byteOffset": 79896,
      "componentType": 5125,
      "count": 8520,
      "type": "SCALAR"
    },
    {
      "bufferView": 2,
      "byteOffset": 134808,
      "componentType": 5126,
      "count": 1836,
      "max": [
        -210.16189575195313,
        42.36970138549805,
        11.991299629211426
      ],
      "min": [
        -384.4119873046875,
        -105.93710327148438,
        -45.2223014831543
      ],
      "type": "VEC3"
    },
    {
      "bufferView": 2,
      "byteOffset": 156840,
      "componentType": 5126,
      "count": 1836,
      "max": [
        0.9984122514724731,
        0.9939365983009338,
        0.9974803924560547
      ],
      "min": [
        -0.999133825302124,
        -0.989683985710144,
        -0.9995136857032776
      ],
      "type": "VEC3"
    },
    {
      "bufferView": 1,
      "byteOffset": 44936,
      "componentType": 5126,
      "count": 1836,
      "max": [
        0.9988999962806702,
        0.9562000036239624
      ],
      "min": [
        0.0010000000474974513,
        0.0012000000569969416
      ],
      "type": "VEC2"
    },
    {
      "bufferView": 0,
      "byteOffset": 113976,
      "componentType": 5125,
      "count": 9000,
      "type": "SCALAR"
    },
    {
      "bufferView": 2,
      "byteOffset": 178872,
      "componentType": 5126,
      "count": 2354,
      "max": [
        -206.10899353027344,
        517.4483032226563,
        217.55169677734375
      ],
      "min": [
        -734.7415161132813,
        -193.44569396972656,
        -10.338000297546387
      ],
      "type": "VEC3"
    },
    {
      "bufferView": 2,
      "byteOffset": 207120,
      "componentType": 5126,
      "count": 2354,
      "max": [
        0.9999284744262695,
        0.9999966621398926,
        0.9998494386672974
      ],
      "min": [
        -0.9998571872711182,
        -0.9976105093955994,
        -0.9998345971107483
      ],
      "type": "VEC3"
    },
    {
      "bufferView": 1,
      "byteOffset": 59624,
      "componentType": 5126,
      "count": 2354,
      "max": [
        0.9997000098228455,
        0.9986000061035156
      ],
      "min": [
        0.0003000000142492354,
        0.0003000000142492354
      ],
      "type": "VEC2"
    },
    {
      "bufferView": 0,
      "byteOffset": 149976,
      "componentType": 5125,
      "count": 11808,
      "type": "SCALAR"
    },
    {
      "bufferView": 2,
      "byteOffset": 235368,
      "componentType": 5126,
      "count": 792,
      "max": [
        508.6455078125,
        486.0060119628906,
        190.1157989501953
      ],
      "min": [
        85.44000244140625,
        -195.85260009765625,
        -22.913700103759766
      ],
      "type": "VEC3"
    },
    {
      "bufferView": 2,
      "byteOffset": 244872,
      "componentType": 5126,
      "count": 792,
      "max": [
        0.9999109506607056,
        0.9997244477272034,
        0.9998518228530884
      ],
      "min": [
        -0.9999179840087891,
        -0.9993599653244019,
        -0.9998887777328491
      ],
      "type": "VEC3"
    },
    {
      "bufferView": 1,
      "byteOffset": 78456,
      "componentType": 5126,
      "count": 792,
      "max": [
        0.9997000098228455,
        0.8349999785423279
      ],
      "min": [
        0.0003000000142492354,
        0.00039999998989515007
      ],
      "type": "VEC2"
    },
    {
      "bufferView": 0,
      "byteOffset": 197208,
      "componentType": 5125,
      "count": 3936,
      "type": "SCALAR"
    },
    {
      "bufferView": 2,
      "byteOffset": 254376,
      "componentType": 5126,
      "count": 396,
      "max": [
        55.12260055541992,
        -628.7371826171875,
        190.1157989501953
      ],
      "min": [
        -152.8990936279297,
        -689.3477172851563,
        -7.089300155639648
      ],
      "type": "VEC3"
    },
    {
      "bufferView": 2,
      "byteOffset": 259128,
      "componentType": 5126,
      "count": 396,
      "max": [
        0.9815244674682617,
        0.998849630355835,
        0.9998502731323242
      ],
      "min": [
        -0.9812727570533752,
        -0.9995086789131165,
        -0.9998357892036438
      ],
      "type": "VEC3"
    },
    {
      "bufferView": 1,
      "byteOffset": 84792,
      "componentType": 5126,
      "count": 396,
      "max": [
        0.9848999977111816,
        0.9995999932289124
      ],
      "min": [
        0.00039999998989515007,
        0.0003000000142492354
      ],
      "type": "VEC2"
    },
    {
      "bufferView": 0,
      "byteOffset": 212952,
      "componentType": 5125,
      "count": 1968,
      "type": "SCALAR"
    }
  ],
  "asset": {
    "extras": {
      "author": "ruslans3d (https://sketchfab.com/ruslans3d)",
      "license": "CC-BY-4.0 (http://creativecommons.org/licenses/by/4.0/)",
      "source": "https://sketchfab.com/3d-models/stonehenge-37cfc2bb99944703b5d57ea281030ca6",
      "title": "Stonehenge"
    },
    "generator": "Sketchfab-12.63.0",
    "version": "2.0"
  },
  "bufferViews": [
    {
      "buffer": 0,
      "byteLength": 220824,
      "name": "floatBufferViews",
      "target": 34963
    },
    {
      "buffer": 0,
      "byteLength": 87960,
      "byteOffset": 220824,
      "byteStride": 8,
      "name": "floatBufferViews",
      "target": 34962
    },
    {
      "buffer": 0,
      "byteLength": 263880,
      "byteOffset": 308784,
      "byteStride": 12,
      "name": "floatBufferViews",
      "target": 34962
    }
  ],
  "buffers": [
    {
      "byteLength": 572664,
      "uri": "scene.bin"
    }
  ],
  "extensionsUsed": [
    "KHR_materials_unlit"
  ],
  "images": [
    {
      "uri": "textures/01___Default_baseColor.jpeg"
    },
    {
      "uri": "textures/01___Defaultfff_baseColor.jpeg"
    },
    {
      "uri": "textures/01___Defaultfffddd_baseColor.jpeg"
    },
    {
      "uri": "textures/01___Defaultfffdddddd_baseColor.jpeg"
    },
    {
      "uri": "textures/01___Defaultfffddddddddd_baseColor.jpeg"
    },
    {
      "uri": "textures/01___Defaultfffff_baseColor.jpeg"
    },
    {
      "uri": "textures/01___Defaultfffffdddd_baseColor.jpeg"
    },
    {
      "uri": "textures/01___Defaultffffffff_baseColor.jpeg"
    }
  ],
  "materials": [
    {
      "doubleSided": true,
      "emissiveTexture": {
        "index": 0
      },
      "extensions": {
        "KHR_materials_unlit": {}
      },
      "name": "01___Default",
      "pbrMetallicRoughness": {
        "baseColorTexture": {
          "index": 0
        },
        "metallicFactor": 0.0
      }
    },
    {
      "doubleSided": true,
      "emissiveTexture": {
        "index": 1
      },
      "extensions": {
        "KHR_materials_unlit": {}
      },
      "name": "01___Defaultfff",
      "pbrMetallicRoughness": {
        "baseColorTexture": {
          "index": 1
        },
        "metallicFactor": 0.0
      }
    },
    {
      "doubleSided": true,
      "emissiveTexture": {
        "index": 2
      },
      "extensions": {
        "KHR_materials_unlit": {}
      },
      "name": "01___Defaultfffddd",
      "pbrMetallicRoughness": {
        "baseColorTexture": {
          "index": 2
        },
        "metallicFactor": 0.0
      }
    },
    {
      "doubleSided": true,
      "emissiveTexture": {
        "index": 3
      },
      "extensions": {
        "KHR_materials_unlit": {}
      },
      "name": "01___Defaultfffdddddd",
      "pbrMetallicRoughness": {
        "baseColorTexture": {
          "index": 3
        },
        "metallicFactor": 0.0
      }
    },
    {
      "doubleSided": true,
      "emissiveTexture": {
        "index": 4
      },
      "extensions": {
        "KHR_materials_unlit": {}
      },
      "name": "01___Defaultfffddddddddd",
      "pbrMetallicRoughness": {
        "baseColorTexture": {
          "index": 4
        },
        "metallicFactor": 0.0
      }
    },
    {
      "doubleSided": true,
      "emissiveTexture": {
        "index": 5
      },
      "extensions": {
        "KHR_materials_unlit": {}
      },
      "name": "01___Defaultfffff",
      "pbrMetallicRoughness": {
        "baseColorTexture": {
          "index": 5
        },
        "metallicFactor": 0.0
      }
    },
    {
      "doubleSided": true,
      "emissiveTexture": {
        "index": 6
      },
      "extensions": {
        "KHR_materials_unlit": {}
      },
      "name": "01___Defaultfffffdddd",
      "pbrMetallicRoughness": {
        "baseColorTexture": {
          "index": 6
        },
        "metallicFactor": 0.0
      }
    },
    {
      "doubleSided": true,
      "emissiveTexture": {
        "index": 7
      },
      "extensions": {
        "KHR_materials_unlit": {}
      },
      "name": "01___Defaultffffffff",
      "pbrMetallicRoughness": {
        "baseColorTexture": {
          "index": 7
        },
        "metallicFactor": 0.0
      }
    }
  ],
  "meshes": [
    {
      "name": "Object_0",
      "primitives": [
        {
          "attributes": {
            "NORMAL": 1,
            "POSITION": 0,
            "TEXCOORD_0": 2
          },
          "indices": 3,
          "material": 0,
          "mode": 4
        }
      ]
    },
    {
      "name": "Object_1",
      "primitives": [
        {
          "attributes": {
            "NORMAL": 5,
            "POSITION": 4,
            "TEXCOORD_0": 6
          },
          "indices": 7,
          "material": 1,
          "mode": 4
        }
      ]
    },
    {
      "name": "Object_2",
      "primitives": [
        {
          "attributes": {
            "NORMAL": 9,
            "POSITION": 8,
            "TEXCOORD_0": 10
          },
          "indices": 11,
          "material": 2,
          "mode": 4
        }
      ]
    },
    {
      "name": "Object_3",
      "primitives": [
        {
          "attributes": {
            "NORMAL": 13,
            "POSITION": 12,
            "TEXCOORD_0": 14
          },
          "indices": 15,
          "material": 3,
          "mode": 4
        }
      ]
    },
    {
      "name": "Object_4",
      "primitives": [
        {
          "attributes": {
            "NORMAL": 17,
            "POSITION": 16,
            "TEXCOORD_0": 18
          },
          "indices": 19,
          "material": 4,
          "mode": 4
        }
      ]
    },
    {
      "name": "Object_5",
      "primitives": [
        {
          "attributes": {
            "NORMAL": 21,
            "POSITION": 20,
            "TEXCOORD_0": 22
          },
          "indices": 23,
          "material": 5,
          "mode": 4
        }
      ]
    },
    {
      "name": "Object_6",
      "primitives": [
        {
          "attributes": {
            "NORMAL": 25,
            "POSITION": 24,
            "TEXCOORD_0": 26
          },
          "indices": 27,
          "material": 6,
          "mode": 4
        }
      ]
    },
    {
      "name": "Object_7",
      "primitives": [
        {
          "attributes": {
            "NORMAL": 29,
            "POSITION": 28,
            "TEXCOORD_0": 30
          },
          "indices": 31,
          "material": 7,
          "mode": 4
        }
      ]
    }
  ],
  "nodes": [
    {
      "children": [
        1
      ],
      "matrix": [
        1.0,
        0.0,
        0.0,
        0.0,
        0.0,
        2.220446049250313e-16,
        -1.0,
        0.0,
        0.0,
        1.0,
        2.220446049250313e-16,
        0.0,
        0.0,
        0.0,
        0.0,
        1.0
      ],
      "name": "Sketchfab_model"
    },
    {
      "children": [
        2,
        3,
        4,
        5,
        6,
        7,
        8,
        9
      ],
      "name": "Stonehenge.obj.cleaner"
    },
    {
      "mesh": 0,
      "name": "Object_2"
    },
    {
      "mesh": 1,
      "name": "Object_3"
    },
    {
      "mesh": 2,
      "name": "Object_4"
    },
    {
      "mesh": 3,
      "name": "Object_5"
    },
    {
      "mesh": 4,
      "name": "Object_6"
    },
    {
      "mesh": 5,
      "name": "Object_7"
    },
    {
      "mesh": 6,
      "name": "Object_8"
    },
    {
      "mesh": 7,
      "name": "Object_9"
    }
  ],
  "samplers": [
    {
      "magFilter": 9729,
      "minFilter": 9987,
      "wrapS": 10497,
      "wrapT": 10497
    }
  ],
  "scene": 0,
  "scenes": [
    {
      "name": "Sketchfab_Scene",
      "nodes": [
        0
      ]
    }
  ],
  "textures": [
    {
      "sampler": 0,
      "source": 0
    },
    {
      "sampler": 0,
      "source": 1
    },
    {
      "sampler": 0,
      "source": 2
    },
    {
      "sampler": 0,
      "source": 3
    },
    {
      "sampler": 0,
      "source": 4
    },
    {
      "sampler": 0,
      "source": 5
    },
    {
      "sampler": 0,
      "source": 6
    },
    {
      "sampler": 0,
      "source": 7
    }
  ]
}
