{
  "accessors": [
    {
      "bufferView": 2,
      "componentType": 5126,
      "count": 65532,
      "max": [
        17.52979850769043,
        12.82952880859375,
        20.739410400390625
      ],
      "min": [
        0.13541412353515625,
        0.0,
        0.0
      ],
      "type": "VEC3"
    },
    {
      "bufferView": 2,
      "byteOffset": 786384,
      "componentType": 5126,
      "count": 65532,
      "max": [
        0.999869704246521,
        0.9999999403953552,
        0.9999714493751526
      ],
      "min": [
        -0.9999992847442627,
        -0.9999985098838806,
        -0.9999494552612305
      ],
      "type": "VEC3"
    },
    {
      "bufferView": 1,
      "componentType": 5126,
      "count": 65532,
      "max": [
        0.9980469942092896,
        0.998009979724884
      ],
      "min": [
        0.0019529999699443579,
        0.07164199650287628
      ],
      "type": "VEC2"
    },
    {
      "bufferView": 0,
      "componentType": 5125,
      "count": 311580,
      "type": "SCALAR"
    },
    {
      "bufferView": 2,
      "byteOffset": 1572768,
      "componentType": 5126,
      "count": 65532,
      "max": [
        21.861862182617188,
        12.82952880859375,
        19.962963104248047
      ],
      "min": [
        10.856033325195313,
        1.7714424133300781,
        0.0
      ],
      "type": "VEC3"
    },
    {
      "bufferView": 2,
      "byteOffset": 2359152,
      "componentType": 5126,
      "count": 65532,
      "max": [
        0.999955952167511,
        0.9999999403953552,
        0.9999998807907104
      ],
      "min": [
        -0.9999901652336121,
        -0.9999427199363708,
        -0.9999586939811707
      ],
      "type": "VEC3"
    },
    {
      "bufferView": 1,
      "byteOffset": 524256,
      "componentType": 5126,
      "count": 65532,
      "max": [
        0.9980469942092896,
        0.998009979724884
      ],
      "min": [
        0.0019529999699443579,
        0.001990000018849969
      ],
      "type": "VEC2"
    },
    {
      "bufferView": 0,
      "byteOffset": 1246320,
      "componentType": 5125,
      "count": 323559,
      "type": "SCALAR"
    },
    {
      "bufferView": 2,
      "byteOffset": 3145536,
      "componentType": 5126,
      "count": 65532,
      "max": [
        21.977500915527344,
        12.82952880859375,
        21.763248443603516
      ],
      "min": [
        0.0,
        1.5679473876953125,
        1.5994653701782227
      ],
      "type": "VEC3"
    },
    {
      "bufferView": 2,
      "byteOffset": 3931920,
      "componentType": 5126,
      "count": 65532,
      "max": [
        0.9999685287475586,
        0.9999999403953552,
        0.9999696016311646
      ],
      "min": [
        -0.9999731183052063,
        -0.9999999403953552,
        -0.9999653697013855
      ],
      "type": "VEC3"
    },
    {
      "bufferView": 1,
      "byteOffset": 1048512,
      "componentType": 5126,
      "count": 65532,
      "max": [
        0.9980469942092896,
        0.998009979724884
      ],
      "min": [
        0.0019529999699443579,
        0.001990000018849969
      ],
      "type": "VEC2"
    },
    {
      "bufferView": 0,
      "byteOffset": 2540556,
      "componentType": 5125,
      "count": 332148,
      "type": "SCALAR"
    },
    {
      "bufferView": 2,
      "byteOffset": 4718304,
      "componentType": 5126,
      "count": 65532,
      "max": [
        16.686038970947266,
        12.82952880859375,
        21.782859802246094
      ],
      "min": [
        0.0,
        1.650442123413086,
        1.7050485610961914
      ],
      "type": "VEC3"
    },
    {
      "bufferView": 2,
      "byteOffset": 5504688,
      "componentType": 5126,
      "count": 65532,
      "max": [
        0.9999464750289917,
        0.9999999403953552,
        0.9999864101409912
      ],
      "min": [
        -0.999950110912323,
        -0.9998773336410522,
        -0.9999545216560364
      ],
      "type": "VEC3"
    },
    {
      "bufferView": 1,
      "byteOffset": 1572768,
      "componentType": 5126,
      "count": 65532,
      "max": [
        0.9980469942092896,
        0.998009979724884
      ],
      "min": [
        0.0019529999699443579,
        0.001990000018849969
      ],
      "type": "VEC2"
    },
    {
      "bufferView": 0,
      "byteOffset": 3869148,
      "componentType": 5125,
      "count": 326205,
      "type": "SCALAR"
    },
    {
      "bufferView": 2,
      "byteOffset": 6291072,
      "componentType": 5126,
      "count": 41898,
      "max": [
        16.817306518554688,
        12.82952880859375,
        21.263633728027344
      ],
      "min": [
        10.81249713897705,
        1.7105903625488281,
        5.450007915496826
      ],
      "type": "VEC3"
    },
    {
      "bufferView": 2,
      "byteOffset": 6793848,
      "componentType": 5126,
      "count": 41898,
      "max": [
        0.9999372959136963,
        0.9999999403953552,
        0.9998773336410522
      ],
      "min": [
        -0.9999963045120239,
        -0.9999971985816956,
        -0.9998229742050171
      ],
      "type": "VEC3"
    },
    {
      "bufferView": 1,
      "byteOffset": 2097024,
      "componentType": 5126,
      "count": 41898,
      "max": [
        0.9980469942092896,
        0.9970149993896484
      ],
      "min": [
        0.0019529999699443579,
        0.08159200102090836
      ],
      "type": "VEC2"
    },
    {
      "bufferView": 0,
      "byteOffset": 5173968,
      "componentType": 5125,
      "count": 209802,
      "type": "SCALAR"
    }
  ],
  "asset": {
    "extras": {
      "author": "thehydrous (https://sketchfab.com/thehydro.us)",
      "license": "CC-BY-NC-SA-4.0 (http://creativecommons.org/licenses/by-nc-sa/4.0/)",
      "source": "https://sketchfab.com/3d-models/pocillopora-verrucosa-c9b2658afc7547f1a5cc04be13dc86c6",
      "title": "Pocillopora verrucosa"
    },
    "generator": "Sketchfab-12.68.0",
    "version": "2.0"
  },
  "bufferViews": [
    {
      "buffer": 0,
      "byteLength": 6013176,
      "name": "floatBufferViews",
      "target": 34963
    },
    {
      "buffer": 0,
      "byteLength": 2432208,
      "byteOffset": 6013176,
      "byteStride": 8,
      "name": "floatBufferViews",
      "target": 34962
    },
    {
      "buffer": 0,
      "byteLength": 7296624,
      "byteOffset": 8445384,
      "byteStride": 12,
      "name": "floatBufferViews",
      "target": 34962
    }
  ],
  "buffers": [
    {
      "byteLength": 15742008,
      "uri": "scene.bin"
    }
  ],
  "extensionsUsed": [
    "KHR_materials_unlit"
  ],
  "images": [
    {
      "uri": "textures/Material_0_baseColor.jpeg"
    }
  ],
  "materials": [
    {
      "doubleSided": true,
      "extensions": {
        "KHR_materials_unlit": {}
      },
      "name": "Material_0",
      "pbrMetallicRoughness": {
        "baseColorTexture": {
          "index": 0
        },
        "metallicFactor": 0.0
      }
    }
  ],
  "meshes": [
    {
      "name": "Object_0",
      "primitives": [
        {
          "attributes": {
            "NORMAL": 1,
            "POSITION": 0,
            "TEXCOORD_0": 2
          },
          "indices": 3,
          "material": 0,
          "mode": 4
        }
      ]
    },
    {
      "name": "Object_1",
      "primitives": [
        {
          "attributes": {
            "NORMAL": 5,
            "POSITION": 4,
            "TEXCOORD_0": 6
          },
          "indices": 7,
          "material": 0,
          "mode": 4
        }
      ]
    },
    {
      "name": "Object_2",
      "primitives": [
        {
          "attributes": {
            "NORMAL": 9,
            "POSITION": 8,
            "TEXCOORD_0": 10
          },
          "indices": 11,
          "material": 0,
          "mode": 4
        }
      ]
    },
    {
      "name": "Object_3",
      "primitives": [
        {
          "attributes": {
            "NORMAL": 13,
            "POSITION": 12,
            "TEXCOORD_0": 14
          },
          "indices": 15,
          "material": 0,
          "mode": 4
        }
      ]
    },
    {
      "name": "Object_4",
      "primitives": [
        {
          "attributes": {
            "NORMAL": 17,
            "POSITION": 16,
            "TEXCOORD_0": 18
          },
          "indices": 19,
          "material": 0,
          "mode": 4
        }
      ]
    }
  ],
  "nodes": [
    {
      "children": [
        1
      ],
      "matrix": [
        0.999984085559845,
        -1.6007740672350696e-16,
        -0.0056379507295787334,
        0.0,
        -1.6132928326584306e-16,
        -1.0,
        -2.366186538154888e-16,
        0.0,
        -0.0056379507295787334,
        2.375231394193686e-16,
        -0.999984085559845,
        0.0,
        1.825978586111887e-07,
        -7.697811126708986,
        7.697875976562498,
        1.0
      ],
      "name": "Sketchfab_model"
    },
    {
      "children": [
        2
      ],
      "matrix": [
        1.0,
        0.0,
        0.0,
        0.0,
        0.0,
        1.0,
        0.0,
        0.0,
        0.0,
        0.0,
        1.0,
        0.0,
        -10.988750457763672,
        -14.112601280212402,
        -10.891429901123047,
        1.0
      ],
      "name": "CASIZ098672PocilloporaVerrucosa.obj.cleaner.materialmerger.gles"
    },
    {
      "children": [
        3,
        4,
        5,
        6,
        7
      ],
      "name": "Object_2"
    },
    {
      "mesh": 0,
      "name": "Object_3"
    },
    {
      "mesh": 1,
      "name": "Object_4"
    },
    {
      "mesh": 2,
      "name": "Object_5"
    },
    {
      "mesh": 3,
      "name": "Object_6"
    },
    {
      "mesh": 4,
      "name": "Object_7"
    }
  ],
  "samplers": [
    {
      "magFilter": 9729,
      "minFilter": 9987,
      "wrapS": 10497,
      "wrapT": 10497
    }
  ],
  "scene": 0,
  "scenes": [
    {
      "name": "Sketchfab_Scene",
      "nodes": [
        0
      ]
    }
  ],
  "textures": [
    {
      "sampler": 0,
      "source": 0
    }
  ]
}
